<svg width="108" height="24" viewBox="0 0 108 24" fill="none" xmlns="http://www.w3.org/2000/svg">
<path d="M10.1439 6.62759C10.9305 4.6666 11.3238 3.6861 12.0001 3.6861C12.6764 3.6861 13.0697 4.6666 13.8563 6.6276L13.893 6.71891C14.3373 7.82678 14.5595 8.38071 15.0124 8.7174C15.4652 9.05409 16.0597 9.10733 17.2486 9.2138L17.4636 9.23305C19.4094 9.40732 20.3823 9.49445 20.5905 10.1134C20.7986 10.7324 20.0761 11.3898 18.6311 12.7044L18.1488 13.1432C17.4173 13.8087 17.0515 14.1415 16.8811 14.5776C16.8493 14.659 16.8228 14.7423 16.8019 14.8271C16.6899 15.2818 16.797 15.7645 17.0112 16.73L17.0778 17.0305C17.4715 18.8049 17.6684 19.692 17.3247 20.0747C17.1963 20.2177 17.0293 20.3206 16.8439 20.3712C16.3477 20.5066 15.6433 19.9326 14.2343 18.7845C13.3091 18.0306 12.8465 17.6537 12.3154 17.5689C12.1065 17.5355 11.8937 17.5355 11.6847 17.5689C11.1536 17.6537 10.6911 18.0306 9.76589 18.7845C8.35694 19.9326 7.65246 20.5066 7.15626 20.3712C6.97084 20.3206 6.80393 20.2177 6.67551 20.0747C6.33183 19.692 6.52866 18.8049 6.92234 17.0305L6.98902 16.73C7.20322 15.7645 7.31033 15.2818 7.19827 14.8271C7.17737 14.7423 7.15093 14.659 7.11913 14.5776C6.94866 14.1415 6.58291 13.8087 5.8514 13.1432L5.36912 12.7044C3.92408 11.3898 3.20155 10.7324 3.40973 10.1134C3.61791 9.49445 4.59082 9.40732 6.53663 9.23305L6.75157 9.2138C7.94049 9.10733 8.53494 9.05409 8.98779 8.7174C9.44064 8.38071 9.66284 7.82678 10.1072 6.71891L10.1439 6.62759Z" fill="#F4CE14"/>
<path d="M10.1439 6.62759C10.9305 4.6666 11.3238 3.6861 12.0001 3.6861C12.6764 3.6861 13.0697 4.6666 13.8563 6.6276L13.893 6.71891C14.3373 7.82678 14.5595 8.38071 15.0124 8.7174C15.4652 9.05409 16.0597 9.10733 17.2486 9.2138L17.4636 9.23305C19.4094 9.40732 20.3823 9.49445 20.5905 10.1134C20.7986 10.7324 20.0761 11.3898 18.6311 12.7044L18.1488 13.1432C17.4173 13.8087 17.0515 14.1415 16.8811 14.5776C16.8493 14.659 16.8228 14.7423 16.8019 14.8271C16.6899 15.2818 16.797 15.7645 17.0112 16.73L17.0778 17.0305C17.4715 18.8049 17.6684 19.692 17.3247 20.0747C17.1963 20.2177 17.0293 20.3206 16.8439 20.3712C16.3477 20.5066 15.6433 19.9326 14.2343 18.7845C13.3091 18.0306 12.8465 17.6537 12.3154 17.5689C12.1065 17.5355 11.8937 17.5355 11.6847 17.5689C11.1536 17.6537 10.6911 18.0306 9.76589 18.7845C8.35694 19.9326 7.65246 20.5066 7.15626 20.3712C6.97084 20.3206 6.80393 20.2177 6.67551 20.0747C6.33183 19.692 6.52866 18.8049 6.92234 17.0305L6.98902 16.73C7.20322 15.7645 7.31033 15.2818 7.19827 14.8271C7.17737 14.7423 7.15093 14.659 7.11913 14.5776C6.94866 14.1415 6.58291 13.8087 5.8514 13.1432L5.36912 12.7044C3.92408 11.3898 3.20155 10.7324 3.40973 10.1134C3.61791 9.49445 4.59082 9.40732 6.53663 9.23305L6.75157 9.2138C7.94049 9.10733 8.53494 9.05409 8.98779 8.7174C9.44064 8.38071 9.66284 7.82678 10.1072 6.71891L10.1439 6.62759Z" stroke="#495E57"/>
<path d="M10.1439 6.62759C10.9305 4.6666 11.3238 3.6861 12.0001 3.6861C12.6764 3.6861 13.0697 4.6666 13.8563 6.6276L13.893 6.71891C14.3373 7.82678 14.5595 8.38071 15.0124 8.7174C15.4652 9.05409 16.0597 9.10733 17.2486 9.2138L17.4636 9.23305C19.4094 9.40732 20.3823 9.49445 20.5905 10.1134C20.7986 10.7324 20.0761 11.3898 18.6311 12.7044L18.1488 13.1432C17.4173 13.8087 17.0515 14.1415 16.8811 14.5776C16.8493 14.659 16.8228 14.7423 16.8019 14.8271C16.6899 15.2818 16.797 15.7645 17.0112 16.73L17.0778 17.0305C17.4715 18.8049 17.6684 19.692 17.3247 20.0747C17.1963 20.2177 17.0293 20.3206 16.8439 20.3712C16.3477 20.5066 15.6433 19.9326 14.2343 18.7845C13.3091 18.0306 12.8465 17.6537 12.3154 17.5689C12.1065 17.5355 11.8937 17.5355 11.6847 17.5689C11.1536 17.6537 10.6911 18.0306 9.76589 18.7845C8.35694 19.9326 7.65246 20.5066 7.15626 20.3712C6.97084 20.3206 6.80393 20.2177 6.67551 20.0747C6.33183 19.692 6.52866 18.8049 6.92234 17.0305L6.98902 16.73C7.20322 15.7645 7.31033 15.2818 7.19827 14.8271C7.17737 14.7423 7.15093 14.659 7.11913 14.5776C6.94866 14.1415 6.58291 13.8087 5.8514 13.1432L5.36912 12.7044C3.92408 11.3898 3.20155 10.7324 3.40973 10.1134C3.61791 9.49445 4.59082 9.40732 6.53663 9.23305L6.75157 9.2138C7.94049 9.10733 8.53494 9.05409 8.98779 8.7174C9.44064 8.38071 9.66284 7.82678 10.1072 6.71891L10.1439 6.62759Z" stroke="black" stroke-opacity="0.2"/>
<path d="M31.1439 6.62759C31.9305 4.6666 32.3238 3.6861 33.0001 3.6861C33.6764 3.6861 34.0697 4.6666 34.8563 6.6276L34.893 6.71891C35.3373 7.82678 35.5595 8.38071 36.0124 8.7174C36.4652 9.05409 37.0597 9.10733 38.2486 9.2138L38.4636 9.23305C40.4094 9.40732 41.3823 9.49445 41.5905 10.1134C41.7986 10.7324 41.0761 11.3898 39.6311 12.7044L39.1488 13.1432C38.4173 13.8087 38.0515 14.1415 37.8811 14.5776C37.8493 14.659 37.8228 14.7423 37.8019 14.8271C37.6899 15.2818 37.797 15.7645 38.0112 16.73L38.0778 17.0305C38.4715 18.8049 38.6684 19.692 38.3247 20.0747C38.1963 20.2177 38.0293 20.3206 37.8439 20.3712C37.3477 20.5066 36.6433 19.9326 35.2343 18.7845C34.3091 18.0306 33.8465 17.6537 33.3154 17.5689C33.1065 17.5355 32.8937 17.5355 32.6847 17.5689C32.1536 17.6537 31.6911 18.0306 30.7659 18.7845C29.3569 19.9326 28.6525 20.5066 28.1563 20.3712C27.9708 20.3206 27.8039 20.2177 27.6755 20.0747C27.3318 19.692 27.5287 18.8049 27.9223 17.0305L27.989 16.73C28.2032 15.7645 28.3103 15.2818 28.1983 14.8271C28.1774 14.7423 28.1509 14.659 28.1191 14.5776C27.9487 14.1415 27.5829 13.8087 26.8514 13.1432L26.3691 12.7044C24.9241 11.3898 24.2016 10.7324 24.4097 10.1134C24.6179 9.49445 25.5908 9.40732 27.5366 9.23305L27.7516 9.2138C28.9405 9.10733 29.5349 9.05409 29.9878 8.7174C30.4406 8.38071 30.6628 7.82678 31.1072 6.71891L31.1439 6.62759Z" fill="#F4CE14"/>
<path d="M31.1439 6.62759C31.9305 4.6666 32.3238 3.6861 33.0001 3.6861C33.6764 3.6861 34.0697 4.6666 34.8563 6.6276L34.893 6.71891C35.3373 7.82678 35.5595 8.38071 36.0124 8.7174C36.4652 9.05409 37.0597 9.10733 38.2486 9.2138L38.4636 9.23305C40.4094 9.40732 41.3823 9.49445 41.5905 10.1134C41.7986 10.7324 41.0761 11.3898 39.6311 12.7044L39.1488 13.1432C38.4173 13.8087 38.0515 14.1415 37.8811 14.5776C37.8493 14.659 37.8228 14.7423 37.8019 14.8271C37.6899 15.2818 37.797 15.7645 38.0112 16.73L38.0778 17.0305C38.4715 18.8049 38.6684 19.692 38.3247 20.0747C38.1963 20.2177 38.0293 20.3206 37.8439 20.3712C37.3477 20.5066 36.6433 19.9326 35.2343 18.7845C34.3091 18.0306 33.8465 17.6537 33.3154 17.5689C33.1065 17.5355 32.8937 17.5355 32.6847 17.5689C32.1536 17.6537 31.6911 18.0306 30.7659 18.7845C29.3569 19.9326 28.6525 20.5066 28.1563 20.3712C27.9708 20.3206 27.8039 20.2177 27.6755 20.0747C27.3318 19.692 27.5287 18.8049 27.9223 17.0305L27.989 16.73C28.2032 15.7645 28.3103 15.2818 28.1983 14.8271C28.1774 14.7423 28.1509 14.659 28.1191 14.5776C27.9487 14.1415 27.5829 13.8087 26.8514 13.1432L26.3691 12.7044C24.9241 11.3898 24.2016 10.7324 24.4097 10.1134C24.6179 9.49445 25.5908 9.40732 27.5366 9.23305L27.7516 9.2138C28.9405 9.10733 29.5349 9.05409 29.9878 8.7174C30.4406 8.38071 30.6628 7.82678 31.1072 6.71891L31.1439 6.62759Z" stroke="#495E57"/>
<path d="M31.1439 6.62759C31.9305 4.6666 32.3238 3.6861 33.0001 3.6861C33.6764 3.6861 34.0697 4.6666 34.8563 6.6276L34.893 6.71891C35.3373 7.82678 35.5595 8.38071 36.0124 8.7174C36.4652 9.05409 37.0597 9.10733 38.2486 9.2138L38.4636 9.23305C40.4094 9.40732 41.3823 9.49445 41.5905 10.1134C41.7986 10.7324 41.0761 11.3898 39.6311 12.7044L39.1488 13.1432C38.4173 13.8087 38.0515 14.1415 37.8811 14.5776C37.8493 14.659 37.8228 14.7423 37.8019 14.8271C37.6899 15.2818 37.797 15.7645 38.0112 16.73L38.0778 17.0305C38.4715 18.8049 38.6684 19.692 38.3247 20.0747C38.1963 20.2177 38.0293 20.3206 37.8439 20.3712C37.3477 20.5066 36.6433 19.9326 35.2343 18.7845C34.3091 18.0306 33.8465 17.6537 33.3154 17.5689C33.1065 17.5355 32.8937 17.5355 32.6847 17.5689C32.1536 17.6537 31.6911 18.0306 30.7659 18.7845C29.3569 19.9326 28.6525 20.5066 28.1563 20.3712C27.9708 20.3206 27.8039 20.2177 27.6755 20.0747C27.3318 19.692 27.5287 18.8049 27.9223 17.0305L27.989 16.73C28.2032 15.7645 28.3103 15.2818 28.1983 14.8271C28.1774 14.7423 28.1509 14.659 28.1191 14.5776C27.9487 14.1415 27.5829 13.8087 26.8514 13.1432L26.3691 12.7044C24.9241 11.3898 24.2016 10.7324 24.4097 10.1134C24.6179 9.49445 25.5908 9.40732 27.5366 9.23305L27.7516 9.2138C28.9405 9.10733 29.5349 9.05409 29.9878 8.7174C30.4406 8.38071 30.6628 7.82678 31.1072 6.71891L31.1439 6.62759Z" stroke="black" stroke-opacity="0.2"/>
<path d="M52.1439 6.62759C52.9305 4.6666 53.3238 3.6861 54.0001 3.6861C54.6764 3.6861 55.0697 4.6666 55.8563 6.6276L55.893 6.71891C56.3373 7.82678 56.5595 8.38071 57.0124 8.7174C57.4652 9.05409 58.0597 9.10733 59.2486 9.2138L59.4636 9.23305C61.4094 9.40732 62.3823 9.49445 62.5905 10.1134C62.7986 10.7324 62.0761 11.3898 60.6311 12.7044L60.1488 13.1432C59.4173 13.8087 59.0515 14.1415 58.8811 14.5776C58.8493 14.659 58.8228 14.7423 58.8019 14.8271C58.6899 15.2818 58.797 15.7645 59.0112 16.73L59.0778 17.0305C59.4715 18.8049 59.6684 19.692 59.3247 20.0747C59.1963 20.2177 59.0293 20.3206 58.8439 20.3712C58.3477 20.5066 57.6433 19.9326 56.2343 18.7845C55.3091 18.0306 54.8465 17.6537 54.3154 17.5689C54.1065 17.5355 53.8937 17.5355 53.6847 17.5689C53.1536 17.6537 52.6911 18.0306 51.7659 18.7845C50.3569 19.9326 49.6525 20.5066 49.1563 20.3712C48.9708 20.3206 48.8039 20.2177 48.6755 20.0747C48.3318 19.692 48.5287 18.8049 48.9223 17.0305L48.989 16.73C49.2032 15.7645 49.3103 15.2818 49.1983 14.8271C49.1774 14.7423 49.1509 14.659 49.1191 14.5776C48.9487 14.1415 48.5829 13.8087 47.8514 13.1432L47.3691 12.7044C45.9241 11.3898 45.2016 10.7324 45.4097 10.1134C45.6179 9.49445 46.5908 9.40732 48.5366 9.23305L48.7516 9.2138C49.9405 9.10733 50.5349 9.05409 50.9878 8.7174C51.4406 8.38071 51.6628 7.82678 52.1072 6.71891L52.1439 6.62759Z" fill="#F4CE14"/>
<path d="M52.1439 6.62759C52.9305 4.6666 53.3238 3.6861 54.0001 3.6861C54.6764 3.6861 55.0697 4.6666 55.8563 6.6276L55.893 6.71891C56.3373 7.82678 56.5595 8.38071 57.0124 8.7174C57.4652 9.05409 58.0597 9.10733 59.2486 9.2138L59.4636 9.23305C61.4094 9.40732 62.3823 9.49445 62.5905 10.1134C62.7986 10.7324 62.0761 11.3898 60.6311 12.7044L60.1488 13.1432C59.4173 13.8087 59.0515 14.1415 58.8811 14.5776C58.8493 14.659 58.8228 14.7423 58.8019 14.8271C58.6899 15.2818 58.797 15.7645 59.0112 16.73L59.0778 17.0305C59.4715 18.8049 59.6684 19.692 59.3247 20.0747C59.1963 20.2177 59.0293 20.3206 58.8439 20.3712C58.3477 20.5066 57.6433 19.9326 56.2343 18.7845C55.3091 18.0306 54.8465 17.6537 54.3154 17.5689C54.1065 17.5355 53.8937 17.5355 53.6847 17.5689C53.1536 17.6537 52.6911 18.0306 51.7659 18.7845C50.3569 19.9326 49.6525 20.5066 49.1563 20.3712C48.9708 20.3206 48.8039 20.2177 48.6755 20.0747C48.3318 19.692 48.5287 18.8049 48.9223 17.0305L48.989 16.73C49.2032 15.7645 49.3103 15.2818 49.1983 14.8271C49.1774 14.7423 49.1509 14.659 49.1191 14.5776C48.9487 14.1415 48.5829 13.8087 47.8514 13.1432L47.3691 12.7044C45.9241 11.3898 45.2016 10.7324 45.4097 10.1134C45.6179 9.49445 46.5908 9.40732 48.5366 9.23305L48.7516 9.2138C49.9405 9.10733 50.5349 9.05409 50.9878 8.7174C51.4406 8.38071 51.6628 7.82678 52.1072 6.71891L52.1439 6.62759Z" stroke="#495E57"/>
<path d="M52.1439 6.62759C52.9305 4.6666 53.3238 3.6861 54.0001 3.6861C54.6764 3.6861 55.0697 4.6666 55.8563 6.6276L55.893 6.71891C56.3373 7.82678 56.5595 8.38071 57.0124 8.7174C57.4652 9.05409 58.0597 9.10733 59.2486 9.2138L59.4636 9.23305C61.4094 9.40732 62.3823 9.49445 62.5905 10.1134C62.7986 10.7324 62.0761 11.3898 60.6311 12.7044L60.1488 13.1432C59.4173 13.8087 59.0515 14.1415 58.8811 14.5776C58.8493 14.659 58.8228 14.7423 58.8019 14.8271C58.6899 15.2818 58.797 15.7645 59.0112 16.73L59.0778 17.0305C59.4715 18.8049 59.6684 19.692 59.3247 20.0747C59.1963 20.2177 59.0293 20.3206 58.8439 20.3712C58.3477 20.5066 57.6433 19.9326 56.2343 18.7845C55.3091 18.0306 54.8465 17.6537 54.3154 17.5689C54.1065 17.5355 53.8937 17.5355 53.6847 17.5689C53.1536 17.6537 52.6911 18.0306 51.7659 18.7845C50.3569 19.9326 49.6525 20.5066 49.1563 20.3712C48.9708 20.3206 48.8039 20.2177 48.6755 20.0747C48.3318 19.692 48.5287 18.8049 48.9223 17.0305L48.989 16.73C49.2032 15.7645 49.3103 15.2818 49.1983 14.8271C49.1774 14.7423 49.1509 14.659 49.1191 14.5776C48.9487 14.1415 48.5829 13.8087 47.8514 13.1432L47.3691 12.7044C45.9241 11.3898 45.2016 10.7324 45.4097 10.1134C45.6179 9.49445 46.5908 9.40732 48.5366 9.23305L48.7516 9.2138C49.9405 9.10733 50.5349 9.05409 50.9878 8.7174C51.4406 8.38071 51.6628 7.82678 52.1072 6.71891L52.1439 6.62759Z" stroke="black" stroke-opacity="0.2"/>
<path d="M73.1439 6.62759C73.9305 4.6666 74.3238 3.6861 75.0001 3.6861C75.6764 3.6861 76.0697 4.6666 76.8563 6.6276L76.893 6.71891C77.3373 7.82678 77.5595 8.38071 78.0124 8.7174C78.4652 9.05409 79.0597 9.10733 80.2486 9.2138L80.4636 9.23305C82.4094 9.40732 83.3823 9.49445 83.5905 10.1134C83.7986 10.7324 83.0761 11.3898 81.6311 12.7044L81.1488 13.1432C80.4173 13.8087 80.0515 14.1415 79.8811 14.5776C79.8493 14.659 79.8228 14.7423 79.8019 14.8271C79.6899 15.2818 79.797 15.7645 80.0112 16.73L80.0778 17.0305C80.4715 18.8049 80.6684 19.692 80.3247 20.0747C80.1963 20.2177 80.0293 20.3206 79.8439 20.3712C79.3477 20.5066 78.6433 19.9326 77.2343 18.7845C76.3091 18.0306 75.8465 17.6537 75.3154 17.5689C75.1065 17.5355 74.8937 17.5355 74.6847 17.5689C74.1536 17.6537 73.6911 18.0306 72.7659 18.7845C71.3569 19.9326 70.6525 20.5066 70.1563 20.3712C69.9708 20.3206 69.8039 20.2177 69.6755 20.0747C69.3318 19.692 69.5287 18.8049 69.9223 17.0305L69.989 16.73C70.2032 15.7645 70.3103 15.2818 70.1983 14.8271C70.1774 14.7423 70.1509 14.659 70.1191 14.5776C69.9487 14.1415 69.5829 13.8087 68.8514 13.1432L68.3691 12.7044C66.9241 11.3898 66.2016 10.7324 66.4097 10.1134C66.6179 9.49445 67.5908 9.40732 69.5366 9.23305L69.7516 9.2138C70.9405 9.10733 71.5349 9.05409 71.9878 8.7174C72.4406 8.38071 72.6628 7.82678 73.1072 6.71891L73.1439 6.62759Z" fill="#F4CE14"/>
<path d="M73.1439 6.62759C73.9305 4.6666 74.3238 3.6861 75.0001 3.6861C75.6764 3.6861 76.0697 4.6666 76.8563 6.6276L76.893 6.71891C77.3373 7.82678 77.5595 8.38071 78.0124 8.7174C78.4652 9.05409 79.0597 9.10733 80.2486 9.2138L80.4636 9.23305C82.4094 9.40732 83.3823 9.49445 83.5905 10.1134C83.7986 10.7324 83.0761 11.3898 81.6311 12.7044L81.1488 13.1432C80.4173 13.8087 80.0515 14.1415 79.8811 14.5776C79.8493 14.659 79.8228 14.7423 79.8019 14.8271C79.6899 15.2818 79.797 15.7645 80.0112 16.73L80.0778 17.0305C80.4715 18.8049 80.6684 19.692 80.3247 20.0747C80.1963 20.2177 80.0293 20.3206 79.8439 20.3712C79.3477 20.5066 78.6433 19.9326 77.2343 18.7845C76.3091 18.0306 75.8465 17.6537 75.3154 17.5689C75.1065 17.5355 74.8937 17.5355 74.6847 17.5689C74.1536 17.6537 73.6911 18.0306 72.7659 18.7845C71.3569 19.9326 70.6525 20.5066 70.1563 20.3712C69.9708 20.3206 69.8039 20.2177 69.6755 20.0747C69.3318 19.692 69.5287 18.8049 69.9223 17.0305L69.989 16.73C70.2032 15.7645 70.3103 15.2818 70.1983 14.8271C70.1774 14.7423 70.1509 14.659 70.1191 14.5776C69.9487 14.1415 69.5829 13.8087 68.8514 13.1432L68.3691 12.7044C66.9241 11.3898 66.2016 10.7324 66.4097 10.1134C66.6179 9.49445 67.5908 9.40732 69.5366 9.23305L69.7516 9.2138C70.9405 9.10733 71.5349 9.05409 71.9878 8.7174C72.4406 8.38071 72.6628 7.82678 73.1072 6.71891L73.1439 6.62759Z" stroke="#495E57"/>
<path d="M73.1439 6.62759C73.9305 4.6666 74.3238 3.6861 75.0001 3.6861C75.6764 3.6861 76.0697 4.6666 76.8563 6.6276L76.893 6.71891C77.3373 7.82678 77.5595 8.38071 78.0124 8.7174C78.4652 9.05409 79.0597 9.10733 80.2486 9.2138L80.4636 9.23305C82.4094 9.40732 83.3823 9.49445 83.5905 10.1134C83.7986 10.7324 83.0761 11.3898 81.6311 12.7044L81.1488 13.1432C80.4173 13.8087 80.0515 14.1415 79.8811 14.5776C79.8493 14.659 79.8228 14.7423 79.8019 14.8271C79.6899 15.2818 79.797 15.7645 80.0112 16.73L80.0778 17.0305C80.4715 18.8049 80.6684 19.692 80.3247 20.0747C80.1963 20.2177 80.0293 20.3206 79.8439 20.3712C79.3477 20.5066 78.6433 19.9326 77.2343 18.7845C76.3091 18.0306 75.8465 17.6537 75.3154 17.5689C75.1065 17.5355 74.8937 17.5355 74.6847 17.5689C74.1536 17.6537 73.6911 18.0306 72.7659 18.7845C71.3569 19.9326 70.6525 20.5066 70.1563 20.3712C69.9708 20.3206 69.8039 20.2177 69.6755 20.0747C69.3318 19.692 69.5287 18.8049 69.9223 17.0305L69.989 16.73C70.2032 15.7645 70.3103 15.2818 70.1983 14.8271C70.1774 14.7423 70.1509 14.659 70.1191 14.5776C69.9487 14.1415 69.5829 13.8087 68.8514 13.1432L68.3691 12.7044C66.9241 11.3898 66.2016 10.7324 66.4097 10.1134C66.6179 9.49445 67.5908 9.40732 69.5366 9.23305L69.7516 9.2138C70.9405 9.10733 71.5349 9.05409 71.9878 8.7174C72.4406 8.38071 72.6628 7.82678 73.1072 6.71891L73.1439 6.62759Z" stroke="black" stroke-opacity="0.2"/>
<path d="M94.1439 6.62759C94.9305 4.6666 95.3238 3.6861 96.0001 3.6861C96.6764 3.6861 97.0697 4.6666 97.8563 6.6276L97.893 6.71891C98.3373 7.82678 98.5595 8.38071 99.0124 8.7174C99.4652 9.05409 100.06 9.10733 101.249 9.2138L101.464 9.23305C103.409 9.40732 104.382 9.49445 104.59 10.1134C104.799 10.7324 104.076 11.3898 102.631 12.7044L102.149 13.1432C101.417 13.8087 101.052 14.1415 100.881 14.5776C100.849 14.659 100.823 14.7423 100.802 14.8271C100.69 15.2818 100.797 15.7645 101.011 16.73L101.078 17.0305C101.472 18.8049 101.668 19.692 101.325 20.0747C101.196 20.2177 101.029 20.3206 100.844 20.3712C100.348 20.5066 99.6433 19.9326 98.2343 18.7845C97.3091 18.0306 96.8465 17.6537 96.3154 17.5689C96.1065 17.5355 95.8937 17.5355 95.6847 17.5689C95.1536 17.6537 94.6911 18.0306 93.7659 18.7845C92.3569 19.9326 91.6525 20.5066 91.1563 20.3712C90.9708 20.3206 90.8039 20.2177 90.6755 20.0747C90.3318 19.692 90.5287 18.8049 90.9223 17.0305L90.989 16.73C91.2032 15.7645 91.3103 15.2818 91.1983 14.8271C91.1774 14.7423 91.1509 14.659 91.1191 14.5776C90.9487 14.1415 90.5829 13.8087 89.8514 13.1432L89.3691 12.7044C87.9241 11.3898 87.2016 10.7324 87.4097 10.1134C87.6179 9.49445 88.5908 9.40732 90.5366 9.23305L90.7516 9.2138C91.9405 9.10733 92.5349 9.05409 92.9878 8.7174C93.4406 8.38071 93.6628 7.82678 94.1072 6.71891L94.1439 6.62759Z" fill="#F4CE14"/>
<path d="M94.1439 6.62759C94.9305 4.6666 95.3238 3.6861 96.0001 3.6861C96.6764 3.6861 97.0697 4.6666 97.8563 6.6276L97.893 6.71891C98.3373 7.82678 98.5595 8.38071 99.0124 8.7174C99.4652 9.05409 100.06 9.10733 101.249 9.2138L101.464 9.23305C103.409 9.40732 104.382 9.49445 104.59 10.1134C104.799 10.7324 104.076 11.3898 102.631 12.7044L102.149 13.1432C101.417 13.8087 101.052 14.1415 100.881 14.5776C100.849 14.659 100.823 14.7423 100.802 14.8271C100.69 15.2818 100.797 15.7645 101.011 16.73L101.078 17.0305C101.472 18.8049 101.668 19.692 101.325 20.0747C101.196 20.2177 101.029 20.3206 100.844 20.3712C100.348 20.5066 99.6433 19.9326 98.2343 18.7845C97.3091 18.0306 96.8465 17.6537 96.3154 17.5689C96.1065 17.5355 95.8937 17.5355 95.6847 17.5689C95.1536 17.6537 94.6911 18.0306 93.7659 18.7845C92.3569 19.9326 91.6525 20.5066 91.1563 20.3712C90.9708 20.3206 90.8039 20.2177 90.6755 20.0747C90.3318 19.692 90.5287 18.8049 90.9223 17.0305L90.989 16.73C91.2032 15.7645 91.3103 15.2818 91.1983 14.8271C91.1774 14.7423 91.1509 14.659 91.1191 14.5776C90.9487 14.1415 90.5829 13.8087 89.8514 13.1432L89.3691 12.7044C87.9241 11.3898 87.2016 10.7324 87.4097 10.1134C87.6179 9.49445 88.5908 9.40732 90.5366 9.23305L90.7516 9.2138C91.9405 9.10733 92.5349 9.05409 92.9878 8.7174C93.4406 8.38071 93.6628 7.82678 94.1072 6.71891L94.1439 6.62759Z" stroke="#495E57"/>
<path d="M94.1439 6.62759C94.9305 4.6666 95.3238 3.6861 96.0001 3.6861C96.6764 3.6861 97.0697 4.6666 97.8563 6.6276L97.893 6.71891C98.3373 7.82678 98.5595 8.38071 99.0124 8.7174C99.4652 9.05409 100.06 9.10733 101.249 9.2138L101.464 9.23305C103.409 9.40732 104.382 9.49445 104.59 10.1134C104.799 10.7324 104.076 11.3898 102.631 12.7044L102.149 13.1432C101.417 13.8087 101.052 14.1415 100.881 14.5776C100.849 14.659 100.823 14.7423 100.802 14.8271C100.69 15.2818 100.797 15.7645 101.011 16.73L101.078 17.0305C101.472 18.8049 101.668 19.692 101.325 20.0747C101.196 20.2177 101.029 20.3206 100.844 20.3712C100.348 20.5066 99.6433 19.9326 98.2343 18.7845C97.3091 18.0306 96.8465 17.6537 96.3154 17.5689C96.1065 17.5355 95.8937 17.5355 95.6847 17.5689C95.1536 17.6537 94.6911 18.0306 93.7659 18.7845C92.3569 19.9326 91.6525 20.5066 91.1563 20.3712C90.9708 20.3206 90.8039 20.2177 90.6755 20.0747C90.3318 19.692 90.5287 18.8049 90.9223 17.0305L90.989 16.73C91.2032 15.7645 91.3103 15.2818 91.1983 14.8271C91.1774 14.7423 91.1509 14.659 91.1191 14.5776C90.9487 14.1415 90.5829 13.8087 89.8514 13.1432L89.3691 12.7044C87.9241 11.3898 87.2016 10.7324 87.4097 10.1134C87.6179 9.49445 88.5908 9.40732 90.5366 9.23305L90.7516 9.2138C91.9405 9.10733 92.5349 9.05409 92.9878 8.7174C93.4406 8.38071 93.6628 7.82678 94.1072 6.71891L94.1439 6.62759Z" stroke="black" stroke-opacity="0.2"/>
</svg>
