<svg width="25" height="17" viewBox="0 0 25 17" fill="none" xmlns="http://www.w3.org/2000/svg">
<path fill-rule="evenodd" clip-rule="evenodd" d="M6.44294 0.750023C6.70681 0.264848 7.31402 0.0854403 7.7992 0.349304L7.93291 0.422024H8.21428H9.10714C9.65943 0.422024 10.1071 0.869739 10.1071 1.42202C10.1071 1.80276 9.89436 2.1338 9.58123 2.30272L10.7055 5.52083L15.6621 4.35349C15.8744 4.3035 16.0711 4.32503 16.2399 4.39719L15.1499 1.81034C15.02 1.50195 15.0529 1.149 15.2376 0.869965C15.4224 0.590932 15.7345 0.42281 16.0691 0.422035L19.1226 0.414958C20.0399 0.412832 21 1.06712 21 2.21507C21 3.14402 20.2613 4.16103 19.127 4.16103H18.5714C18.4753 4.16103 18.3823 4.14746 18.2943 4.12214L18.8539 5.45012C19.222 5.35624 19.6056 5.30658 20 5.30658C22.7614 5.30658 25 7.74149 25 10.7451C25 13.7487 22.7614 16.1836 20 16.1836C17.2386 16.1836 15 13.7487 15 10.7451C15 8.93634 15.8118 7.33381 17.0607 6.34505L16.7654 5.64409C16.7304 5.74799 16.678 5.85056 16.6063 5.94855L12.9181 10.9859C12.8054 10.9064 12.6818 10.8436 12.5502 10.801L12.5512 10.8039L12.5535 10.8104C12.8232 10.8983 13.0595 11.0706 13.2363 11.2991H13.9286C14.4809 11.2991 14.9286 11.7468 14.9286 12.2991C14.9286 12.8514 14.4809 13.2991 13.9286 13.2991H13.2363C12.9743 13.6378 12.5817 13.853 12.1429 13.853C11.3539 13.853 10.7143 13.1573 10.7143 12.2991C10.7143 12.1296 10.7393 11.9664 10.7854 11.8136L10.7833 11.8076C10.7577 11.8927 10.7387 11.9811 10.727 12.072L9.88254 11.9224C9.38798 14.36 7.38978 16.1836 5 16.1836C2.23858 16.1836 0 13.7487 0 10.7451C0 7.74149 2.23858 5.30658 5 5.30658C6.41809 5.30658 7.69829 5.94871 8.60826 6.98024L8.97859 6.64179L7.49867 2.40571C7.39481 2.38671 7.29423 2.35132 7.2008 2.30051L6.84366 2.10628C6.35849 1.84241 6.17908 1.2352 6.44294 0.750023ZM9.63447 8.70007L9.68237 8.65629L10.1084 9.87572L9.93175 9.84442C9.87081 9.44671 9.77019 9.0636 9.63447 8.70007ZM11.3755 7.4386L11.9336 9.03611L13.4633 6.9469L11.3755 7.4386ZM5.83364 9.516L7.13214 8.32928C6.56311 7.68019 5.78207 7.30658 5 7.30658C3.49812 7.30658 2 8.68444 2 10.7451C2 12.8058 3.49812 14.1836 5 14.1836C6.29021 14.1836 7.57765 13.1668 7.91491 11.5737L6.25724 11.28C5.45838 11.1385 5.20641 10.0892 5.83364 9.516ZM17.9024 2.41779C17.817 2.4947 17.7449 2.58611 17.6901 2.68814L17.5765 2.41855L17.9024 2.41779ZM17.8875 8.3071L19.0785 11.1335C19.2929 11.6425 19.8794 11.8812 20.3883 11.6668C20.8973 11.4523 21.136 10.8659 20.9215 10.3569L19.6468 7.33176C19.764 7.31508 19.882 7.30658 20 7.30658C21.5019 7.30658 23 8.68444 23 10.7451C23 12.8058 21.5019 14.1836 20 14.1836C18.4981 14.1836 17 12.8058 17 10.7451C17 9.7452 17.3527 8.90607 17.8875 8.3071Z" fill="#333333"/>
</svg>
